<?xml version="1.0" standalone="no"?>
<!DOCTYPE svg PUBLIC "-//W3C//DTD SVG 20010904//EN"
 "http://www.w3.org/TR/2001/REC-SVG-20010904/DTD/svg10.dtd">
<svg version="1.0" xmlns="http://www.w3.org/2000/svg"
 width="1024.000000pt" height="1024.000000pt" viewBox="0 0 1024.000000 1024.000000"
 preserveAspectRatio="xMidYMid meet">

<g transform="translate(0.000000,1024.000000) scale(0.100000,-0.100000)"
fill="#000000" stroke="none">
<path d="M4585 6780 c-251 -66 -452 -223 -559 -437 -79 -156 -118 -380 -96
-552 24 -193 85 -325 205 -446 106 -106 231 -172 381 -201 87 -16 298 -18 364
-3 69 16 203 82 249 124 50 46 101 147 108 218 5 47 2 56 -22 85 -46 55 -123
42 -193 -31 -41 -43 -150 -94 -231 -109 -112 -21 -235 14 -323 91 -118 104
-177 340 -134 541 45 211 190 364 360 377 110 9 165 -12 315 -122 64 -47 127
-45 180 4 27 25 31 36 31 79 0 54 -22 180 -38 223 -28 73 -114 133 -229 163
-86 23 -277 21 -368 -4z"/>
<path d="M5342 6748 c-34 -17 -38 -53 -13 -105 21 -43 21 -52 22 -611 1 -638
5 -727 34 -748 14 -10 55 -14 161 -14 163 0 183 7 167 64 -4 17 -8 319 -8 671
0 622 -1 641 -20 674 -39 67 -62 76 -198 78 -77 2 -130 -2 -145 -9z"/>
<path d="M1970 6713 c-333 -50 -478 -100 -670 -227 -281 -188 -455 -447 -490
-733 -18 -146 21 -229 139 -292 82 -43 83 -66 5 -116 -72 -46 -101 -78 -132
-143 -45 -99 -20 -215 66 -299 25 -24 66 -50 98 -63 55 -20 63 -20 1187 -18
l1132 3 50 27 c102 54 155 138 155 248 0 102 -48 184 -136 236 -66 39 -115 36
-216 -13 -46 -22 -127 -70 -181 -106 -157 -105 -190 -109 -353 -34 -122 56
-163 67 -240 67 -113 0 -226 -48 -362 -155 -84 -65 -143 -94 -193 -95 -61 0
-135 28 -214 83 -190 130 -333 218 -411 253 -70 31 -84 41 -84 60 0 13 6 26
13 31 6 4 500 8 1097 9 l1085 0 51 26 c61 32 117 92 134 143 9 26 11 68 7 129
-25 390 -353 758 -807 904 -180 59 -349 83 -565 81 -77 -1 -151 -3 -165 -6z
m364 -164 c133 -11 303 -52 416 -99 306 -127 530 -369 595 -642 24 -101 20
-144 -14 -179 l-29 -29 -1140 0 -1140 0 -33 27 c-32 27 -32 27 -26 102 14 199
158 432 358 581 262 194 604 275 1013 239z"/>
<path d="M8363 6366 c-127 -29 -207 -84 -258 -177 -40 -75 -47 -183 -15 -257
37 -86 92 -126 285 -207 155 -66 197 -105 172 -162 -22 -49 -139 -63 -214 -24
-23 11 -67 43 -99 71 -63 55 -90 61 -140 31 -61 -37 -93 -155 -60 -219 50 -96
233 -172 415 -172 193 0 364 87 428 217 36 75 39 183 7 254 -46 100 -111 150
-272 211 -128 48 -139 53 -174 86 -34 32 -35 53 -4 89 19 21 32 27 62 27 74 0
115 -14 157 -53 53 -49 78 -61 119 -61 114 0 147 167 51 256 -33 31 -89 60
-152 80 -67 22 -233 27 -308 10z"/>
<path d="M6210 6356 c-190 -40 -310 -136 -310 -248 0 -92 89 -150 182 -119 19
6 61 34 93 61 69 58 111 75 172 66 84 -11 133 -67 133 -151 0 -59 -3 -60 -205
-73 -175 -12 -236 -26 -307 -71 -158 -100 -184 -345 -51 -478 114 -114 316
-124 473 -22 33 21 65 47 72 58 11 18 14 17 40 -29 22 -38 39 -54 83 -75 48
-24 64 -27 123 -23 78 6 156 41 196 88 31 37 35 88 9 96 -32 10 -47 20 -67 48
-20 26 -21 46 -27 309 -5 222 -9 293 -22 333 -50 153 -186 232 -412 240 -69 2
-134 -2 -175 -10z m268 -673 c4 -59 -19 -103 -75 -138 -63 -40 -148 -42 -187
-6 -47 44 -41 105 13 148 31 25 107 42 176 40 l70 -2 3 -42z"/>
<path d="M7386 6354 c-86 -21 -193 -81 -258 -146 -63 -63 -128 -185 -147 -276
-14 -68 -14 -226 0 -294 37 -179 177 -327 354 -373 115 -29 300 -13 396 35
153 77 227 236 144 307 -34 30 -64 29 -106 -2 -146 -105 -284 -119 -378 -38
-61 52 -108 156 -79 174 7 5 144 9 303 9 327 0 326 0 345 72 14 51 -2 186 -30
262 -83 218 -305 328 -544 270z m171 -231 c47 -22 93 -94 93 -145 l0 -38 -165
0 c-186 0 -183 -2 -149 78 41 100 137 145 221 105z"/>
<path d="M4607 6183 c-4 -3 -7 -20 -7 -37 0 -67 -8 -76 -61 -76 l-48 0 -6 -47
c-3 -27 -8 -56 -10 -65 -3 -15 5 -18 50 -18 l52 0 -8 -42 c-4 -24 -8 -46 -9
-50 0 -5 -22 -8 -49 -8 l-50 0 -6 -47 c-3 -27 -8 -56 -10 -65 -3 -15 5 -18 51
-18 l54 0 -7 -61 -6 -60 64 3 c60 3 64 5 67 28 10 91 9 90 62 90 55 0 53 2 41
-72 l-8 -48 63 0 c67 0 74 6 74 60 0 52 8 60 61 60 48 0 48 0 54 38 3 20 8 49
10 65 4 27 4 27 -51 27 -47 0 -55 3 -50 16 3 9 6 31 6 50 l0 34 54 0 53 0 7
46 c11 85 12 84 -44 84 l-51 0 7 60 7 60 -62 0 c-67 0 -67 -1 -73 -80 -3 -34
-4 -35 -52 -38 l-48 -3 4 60 4 61 -61 0 c-34 0 -65 -3 -68 -7z m199 -265 c-3
-13 -6 -35 -6 -50 0 -27 -2 -28 -53 -28 l-53 0 4 38 c6 60 7 62 63 62 48 0 51
-1 45 -22z"/>
<path d="M8192 5139 c-76 -38 -117 -128 -93 -202 27 -81 94 -127 186 -127 205
0 272 247 90 331 -55 25 -129 24 -183 -2z"/>
<path d="M3956 5041 c-18 -20 -18 -22 8 -80 l26 -59 0 -585 0 -586 22 -15 c19
-14 67 -16 328 -16 333 0 396 7 490 55 78 39 145 108 183 184 29 60 32 75 32
161 0 82 -4 103 -26 150 -31 67 -76 120 -136 161 l-44 31 51 54 c73 77 95 130
95 229 0 64 -5 89 -23 122 -48 90 -110 141 -228 185 -56 21 -78 22 -409 26
-343 3 -351 3 -369 -17z m601 -238 c97 -46 98 -194 1 -253 -27 -16 -51 -20
-125 -20 l-93 0 0 139 c0 160 -9 148 108 150 50 1 85 -4 109 -16z m10 -546
c52 -27 78 -73 78 -139 0 -65 -20 -100 -76 -133 -28 -16 -52 -20 -129 -20
l-95 0 -3 145 c-1 79 0 151 3 158 8 21 178 12 222 -11z"/>
<path d="M956 4765 c-46 -16 -101 -67 -127 -117 -20 -39 -27 -151 -10 -177 5
-8 4 -29 -2 -50 -16 -58 -12 -208 7 -276 53 -182 187 -316 384 -385 152 -54
169 -55 952 -55 790 0 801 1 958 57 189 68 333 214 376 382 11 43 15 110 14
259 -1 231 -10 269 -79 331 -56 52 -96 55 -172 17 -60 -30 -65 -31 -148 -25
-100 8 -128 1 -231 -59 -65 -38 -79 -42 -138 -42 -51 0 -78 6 -125 28 -71 34
-160 45 -207 27 -18 -7 -58 -30 -88 -50 -127 -85 -178 -91 -275 -35 -125 73
-188 99 -250 103 -88 6 -133 -11 -251 -90 -174 -117 -221 -110 -401 63 -56 55
-107 99 -112 99 -5 0 -15 2 -23 5 -7 2 -30 -2 -52 -10z m2398 -507 c-1 -129
-94 -257 -238 -328 -120 -60 -154 -62 -876 -67 -665 -5 -810 0 -935 32 -192
49 -330 188 -343 343 -4 55 -2 67 13 79 16 11 221 13 1199 11 l1181 -3 -1 -67z"/>
<path d="M6805 4718 c-45 -17 -102 -55 -151 -100 -39 -36 -44 -38 -44 -19 0
12 -6 36 -14 55 -20 49 -56 59 -188 54 -94 -4 -113 -7 -125 -24 -15 -20 -14
-22 12 -94 15 -39 16 -94 14 -440 -1 -217 1 -402 5 -411 13 -31 55 -39 191
-39 173 0 179 4 150 110 -10 35 -18 127 -22 250 -7 227 4 289 58 334 46 39 75
42 147 17 62 -23 64 -23 84 -5 48 43 80 172 59 236 -6 19 -22 45 -36 58 -28
26 -95 35 -140 18z"/>
<path d="M7330 4716 c-166 -48 -292 -178 -335 -343 -19 -73 -19 -223 0 -296
45 -172 163 -288 323 -317 106 -19 231 17 310 90 18 16 35 30 38 30 10 0 3
-111 -11 -158 -52 -172 -267 -206 -435 -67 -44 36 -62 45 -93 45 -98 0 -163
-163 -100 -248 26 -35 137 -99 213 -124 92 -29 281 -36 370 -13 142 37 259
124 315 235 59 116 59 117 63 616 4 509 2 523 -55 545 -36 14 -158 5 -187 -14
-12 -8 -28 -33 -34 -56 l-13 -41 -30 35 c-67 76 -227 114 -339 81z m257 -257
c18 -6 44 -24 58 -41 26 -31 26 -33 23 -167 -3 -155 -12 -175 -84 -211 -115
-57 -247 20 -275 161 -16 80 7 155 65 213 62 62 118 74 213 45z"/>
<path d="M9102 4704 c-29 -14 -77 -48 -106 -75 l-54 -49 -11 44 c-7 28 -21 53
-38 66 -26 21 -36 22 -147 17 -101 -4 -121 -7 -133 -23 -7 -10 -10 -25 -7 -34
34 -79 35 -91 33 -499 l-1 -405 26 -23 c25 -22 36 -23 162 -23 75 0 144 5 155
10 23 13 24 31 4 106 -9 35 -17 133 -21 248 -8 223 3 285 57 330 45 38 72 41
140 16 55 -19 62 -20 83 -7 55 37 87 198 52 265 -33 65 -109 79 -194 36z"/>
<path d="M5170 4698 c-33 -18 -35 -44 -8 -109 21 -51 23 -70 28 -364 l5 -311
33 -67 c41 -82 85 -117 177 -142 119 -33 260 -2 348 75 l44 39 15 -39 c24 -58
60 -73 198 -78 150 -5 160 1 142 85 -27 121 -32 197 -31 517 1 310 0 330 -19
355 -10 14 -30 32 -43 38 -30 16 -209 17 -261 2 -33 -8 -38 -14 -38 -38 0 -16
7 -45 16 -66 13 -31 15 -79 12 -294 -3 -246 -4 -257 -26 -292 -29 -48 -81 -73
-138 -66 -101 11 -107 34 -114 404 l-5 303 -28 27 c-27 27 -31 28 -155 31 -90
2 -134 -1 -152 -10z"/>
<path d="M8147 4703 c-42 -7 -50 -33 -27 -85 18 -40 20 -67 20 -450 l0 -407
24 -28 c24 -28 25 -28 163 -31 176 -4 183 0 165 85 -27 119 -32 215 -31 523 2
278 0 319 -14 347 -10 18 -26 37 -36 43 -19 9 -205 12 -264 3z"/>
</g>
</svg>
